<?xml version="1.0" encoding="UTF-8"?>
<svg width="1920px" height="231px" viewBox="0 0 1920 231" version="1.1"
    xmlns="http://www.w3.org/2000/svg"
    xmlns:xlink="http://www.w3.org/1999/xlink">
    <title>tablet</title>
    <defs>
        <linearGradient x1="14.2464755%" y1="31.8845694%" x2="55.8228795%" y2="71.2800292%" id="linearGradient-1">
            <stop stop-color="#EEEEEE" offset="0%"></stop>
            <stop stop-color="#D5D5D5" offset="100%"></stop>
        </linearGradient>
        <radialGradient cx="50%" cy="40.9477827%" fx="50%" fy="40.9477827%" r="34.1518163%" gradientTransform="translate(0.500000,0.409478),scale(0.120313,1.000000),rotate(90.000000),scale(1.000000,8.572903),translate(-0.500000,-0.409478)" id="radialGradient-2">
            <stop stop-color="#000000" offset="0%"></stop>
            <stop stop-color="#12121251" offset="21.0399084%"></stop>
            <stop stop-color="#29292951" stop-opacity="0.905368961" offset="48.3354047%"></stop>
            <stop stop-color="#00000000" stop-opacity="0" offset="100%"></stop>
        </radialGradient>
        <linearGradient x1="50%" y1="0%" x2="50%" y2="99.0735853%" id="linearGradient-3">
            <stop stop-color="#20202021" offset="0%"></stop>
            <stop stop-color="#00000000" stop-opacity="0" offset="100%"></stop>
        </linearGradient>
        <linearGradient x1="100%" y1="50%" x2="0%" y2="50%" id="linearGradient-4">
            <stop stop-color="#151515" offset="0%"></stop>
            <stop stop-color="#5B5B5B" offset="6.53419192%"></stop>
            <stop stop-color="#373737" offset="29.0910051%"></stop>
            <stop stop-color="#8E8E8E" offset="92.3656942%"></stop>
            <stop stop-color="#2E2E2E" offset="100%"></stop>
        </linearGradient>
        <linearGradient x1="77.3199737%" y1="49.0157439%" x2="2.65996554%" y2="51.1808354%" id="linearGradient-5">
            <stop stop-color="#B4B4B4" offset="0%"></stop>
            <stop stop-color="#151616" offset="64.6831973%"></stop>
            <stop stop-color="#050506" offset="100%"></stop>
        </linearGradient>
    </defs>
    <g id="Page-1" stroke="none" stroke-width="1" fill="none" fill-rule="evenodd">
        <g id="Login-Form-FullHD-Copy-2" transform="translate(0.000000, -682.000000)">
            <g id="tablet" transform="translate(0.000000, 682.000000)">
                <ellipse id="Oval" fill="url(#radialGradient-2)" opacity="0.368791853" cx="960" cy="115.5" rx="960" ry="115.5"></ellipse>
                <polygon id="Rectangle" fill="url(#linearGradient-3)" opacity="0.9195266" points="546.468059 116 1378.46031 116 1478.59526 168 422.670478 168"></polygon>
                <path d="M526.996796,98.4446578 C528.143917,101.873643 537.168586,103.588135 554.070804,103.588135 C570.707175,103.588135 853.822755,105.290948 1377.54283,103.588135 C1383.12215,103.569994 1388.27454,101.855502 1393,98.4446578 L1393,105.444658 C1393,113.728929 1386.28427,120.444658 1378,120.444658 L541.996796,120.444658 C533.712524,120.444658 526.996796,113.728929 526.996796,105.444658 L526.996796,98.4446578 L526.996796,98.4446578 Z" id="Rectangle" fill="url(#linearGradient-4)"></path>
                <path d="M715.260871,24 L1203.84702,24 C1216.86799,24 1229.76363,26.5429576 1241.80984,31.4860841 L1385.29336,90.3641306 C1387.33712,91.2027851 1388.31405,93.5394395 1387.4754,95.5831982 C1387.08032,96.5460035 1386.32554,97.3169202 1385.37131,97.7322855 C1381.61482,99.3674406 1378.10062,100.198212 1374.8287,100.224601 C837.482846,104.5584 557.904588,100.224601 548.690399,100.224601 C543.215793,100.224601 538.468147,99.4596559 534.447462,97.9297655 C532.382745,97.1441257 531.345844,94.8334576 532.131479,92.7687396 C532.523733,91.7378634 533.32425,90.9147084 534.34379,90.4938674 L677.106018,31.5651192 C689.206534,26.5703228 702.170016,24 715.260871,24 Z" id="Rectangle" fill="url(#linearGradient-5)"></path>
            </g>
        </g>
    </g>
</svg>